<svg width="312" height="312" viewBox="0 0 312 312" fill="none" xmlns="http://www.w3.org/2000/svg">
<rect width="312" height="312" rx="30" fill="#94C4C1"/>
<path d="M176.777 46.5024H68.875V102.852H149.161C152.216 95.9967 159.127 90.7437 162.201 88.974C165.957 86.3661 176.712 81.8582 189.677 84.6896C202.642 87.521 210.851 98.1017 213.334 103.038C222.499 120.25 216.036 136.786 211.658 142.902C208.584 148.552 198.004 159.779 180.27 159.481C162.536 159.183 151.893 146.193 148.789 139.735H133.793C132.955 141.505 132.117 144.299 128.205 144.578C125.075 144.802 123.237 141.194 122.71 139.363L69.0613 137.779V270.41H127.087V203.07H176.777C220.012 203.07 255.061 168.021 255.061 124.786C255.061 81.5512 220.012 46.5024 176.777 46.5024Z" fill="white"/>
<rect x="68.875" y="108.533" width="61.0996" height="6.14721" fill="white"/>
<circle cx="105.385" cy="136.475" r="6.14721" fill="white"/>
<circle cx="84.3347" cy="136.289" r="6.14721" fill="white"/>
<circle cx="178.686" cy="121.48" r="9.77965" fill="white"/>
</svg>
